# This file uses centimeters as units for non-parametric coordinates.

mtllib neckSLong.mtl
g default
v 0.951057 0.694226 -0.309017
v 0.809018 0.694226 -0.587786
v 0.587786 0.694226 -0.809017
v 0.309017 0.694226 -0.951057
v 0.000000 0.694226 -1.000000
v -0.309017 0.694226 -0.951057
v -0.587785 0.694226 -0.809017
v -0.809017 0.694226 -0.587785
v -0.951057 0.694226 -0.309017
v -1.000000 0.694226 0.000000
v -0.951057 0.694226 0.309017
v -0.809017 0.694226 0.587785
v -0.587785 0.694226 0.809017
v -0.309017 0.694226 0.951057
v -0.000000 0.694226 1.000000
v 0.309017 0.694226 0.951057
v 0.587785 0.694226 0.809017
v 0.809017 0.694226 0.587785
v 0.951057 0.694226 0.309017
v 1.000000 0.694226 0.000000
v 0.000000 2.694226 0.000000
vt 0.737764 0.172746
vt 0.702254 0.103054
vt 0.646946 0.047746
vt 0.577254 0.012236
vt 0.500000 -0.000000
vt 0.422746 0.012236
vt 0.353054 0.047746
vt 0.297746 0.103054
vt 0.262236 0.172746
vt 0.250000 0.250000
vt 0.262236 0.327254
vt 0.297746 0.396946
vt 0.353054 0.452254
vt 0.422746 0.487764
vt 0.500000 0.500000
vt 0.577254 0.487764
vt 0.646946 0.452254
vt 0.702254 0.396946
vt 0.737764 0.327254
vt 0.750000 0.250000
vt 0.250000 0.500000
vt 0.275000 0.500000
vt 0.300000 0.500000
vt 0.325000 0.500000
vt 0.350000 0.500000
vt 0.375000 0.500000
vt 0.400000 0.500000
vt 0.425000 0.500000
vt 0.450000 0.500000
vt 0.475000 0.500000
vt 0.500000 0.500000
vt 0.525000 0.500000
vt 0.550000 0.500000
vt 0.575000 0.500000
vt 0.600000 0.500000
vt 0.625000 0.500000
vt 0.650000 0.500000
vt 0.675000 0.500000
vt 0.700000 0.500000
vt 0.725000 0.500000
vt 0.750000 0.500000
vt 0.500000 1.000000
vn 0.000000 -1.000000 -0.000000
vn 0.000000 -1.000000 -0.000000
vn 0.000000 -1.000000 -0.000000
vn 0.000000 -1.000000 -0.000000
vn 0.000000 -1.000000 -0.000000
vn 0.000000 -1.000000 -0.000000
vn 0.000000 -1.000000 -0.000000
vn 0.000000 -1.000000 -0.000000
vn 0.000000 -1.000000 -0.000000
vn 0.000000 -1.000000 -0.000000
vn 0.000000 -1.000000 -0.000000
vn 0.000000 -1.000000 -0.000000
vn 0.000000 -1.000000 -0.000000
vn 0.000000 -1.000000 -0.000000
vn 0.000000 -1.000000 -0.000000
vn 0.000000 -1.000000 -0.000000
vn 0.000000 -1.000000 -0.000000
vn 0.000000 -1.000000 -0.000000
vn 0.000000 -1.000000 -0.000000
vn 0.000000 -1.000000 -0.000000
vn 0.850651 0.447214 -0.276392
vn 0.723607 0.447214 -0.525731
vn 0.000000 1.000000 -0.000005
vn 0.525731 0.447214 -0.723607
vn 0.276393 0.447214 -0.850651
vn -0.000000 0.447214 -0.894427
vn -0.276393 0.447214 -0.850651
vn -0.525731 0.447214 -0.723607
vn -0.723607 0.447214 -0.525731
vn -0.850651 0.447214 -0.276393
vn -0.894427 0.447214 0.000000
vn -0.850651 0.447214 0.276393
vn -0.723607 0.447214 0.525731
vn -0.525731 0.447214 0.723607
vn -0.276393 0.447214 0.850651
vn 0.000000 0.447214 0.894427
vn 0.276393 0.447214 0.850651
vn 0.525731 0.447214 0.723607
vn 0.723607 0.447214 0.525731
vn 0.850651 0.447214 0.276393
vn 0.894427 0.447214 0.000001
s off
g pCone1
usemtl initialShadingGroup
f 1/1/1 20/20/2 19/19/3 18/18/4 17/17/5 16/16/6 15/15/7 14/14/8 13/13/9 12/12/10 11/11/11 10/10/12 9/9/13 8/8/14 7/7/15 6/6/16 5/5/17 4/4/18 3/3/19 2/2/20
s 1
f 1/21/21 2/22/22 21/42/23
f 2/22/22 3/23/24 21/42/23
f 3/23/24 4/24/25 21/42/23
f 4/24/25 5/25/26 21/42/23
f 5/25/26 6/26/27 21/42/23
f 6/26/27 7/27/28 21/42/23
f 7/27/28 8/28/29 21/42/23
f 8/28/29 9/29/30 21/42/23
f 9/29/30 10/30/31 21/42/23
f 10/30/31 11/31/32 21/42/23
f 11/31/32 12/32/33 21/42/23
f 12/32/33 13/33/34 21/42/23
f 13/33/34 14/34/35 21/42/23
f 14/34/35 15/35/36 21/42/23
f 15/35/36 16/36/37 21/42/23
f 16/36/37 17/37/38 21/42/23
f 17/37/38 18/38/39 21/42/23
f 18/38/39 19/39/40 21/42/23
f 19/39/40 20/40/41 21/42/23
f 20/40/41 1/41/21 21/42/23
g default
v 0.951057 -1.000000 -0.309017
v 0.809018 -1.000000 -0.587786
v 0.587786 -1.000000 -0.809017
v 0.309017 -1.000000 -0.951057
v 0.000000 -1.000000 -1.000000
v -0.309017 -1.000000 -0.951057
v -0.587785 -1.000000 -0.809017
v -0.809017 -1.000000 -0.587785
v -0.951057 -1.000000 -0.309017
v -1.000000 -1.000000 0.000000
v -0.951057 -1.000000 0.309017
v -0.809017 -1.000000 0.587785
v -0.587785 -1.000000 0.809017
v -0.309017 -1.000000 0.951057
v -0.000000 -1.000000 1.000000
v 0.309017 -1.000000 0.951057
v 0.587785 -1.000000 0.809017
v 0.809017 -1.000000 0.587785
v 0.951057 -1.000000 0.309017
v 1.000000 -1.000000 0.000000
v 0.951057 1.000000 -0.309017
v 0.809018 1.000000 -0.587786
v 0.587786 1.000000 -0.809017
v 0.309017 1.000000 -0.951057
v 0.000000 1.000000 -1.000000
v -0.309017 1.000000 -0.951057
v -0.587785 1.000000 -0.809017
v -0.809017 1.000000 -0.587785
v -0.951057 1.000000 -0.309017
v -1.000000 1.000000 0.000000
v -0.951057 1.000000 0.309017
v -0.809017 1.000000 0.587785
v -0.587785 1.000000 0.809017
v -0.309017 1.000000 0.951057
v -0.000000 1.000000 1.000000
v 0.309017 1.000000 0.951057
v 0.587785 1.000000 0.809017
v 0.809017 1.000000 0.587785
v 0.951057 1.000000 0.309017
v 1.000000 1.000000 0.000000
v 0.000000 -1.000000 0.000000
v 0.000000 1.000000 0.000000
vt 0.648603 0.107966
vt 0.626409 0.064408
vt 0.591842 0.029841
vt 0.548284 0.007647
vt 0.500000 -0.000000
vt 0.451716 0.007647
vt 0.408159 0.029841
vt 0.373591 0.064409
vt 0.351397 0.107966
vt 0.343750 0.156250
vt 0.351397 0.204534
vt 0.373591 0.248091
vt 0.408159 0.282659
vt 0.451716 0.304853
vt 0.500000 0.312500
vt 0.548284 0.304853
vt 0.591841 0.282659
vt 0.626409 0.248091
vt 0.648603 0.204534
vt 0.656250 0.156250
vt 0.375000 0.312500
vt 0.387500 0.312500
vt 0.400000 0.312500
vt 0.412500 0.312500
vt 0.425000 0.312500
vt 0.437500 0.312500
vt 0.450000 0.312500
vt 0.462500 0.312500
vt 0.475000 0.312500
vt 0.487500 0.312500
vt 0.500000 0.312500
vt 0.512500 0.312500
vt 0.525000 0.312500
vt 0.537500 0.312500
vt 0.550000 0.312500
vt 0.562500 0.312500
vt 0.575000 0.312500
vt 0.587500 0.312500
vt 0.600000 0.312500
vt 0.612500 0.312500
vt 0.625000 0.312500
vt 0.375000 0.688440
vt 0.387500 0.688440
vt 0.400000 0.688440
vt 0.412500 0.688440
vt 0.425000 0.688440
vt 0.437500 0.688440
vt 0.450000 0.688440
vt 0.462500 0.688440
vt 0.475000 0.688440
vt 0.487500 0.688440
vt 0.500000 0.688440
vt 0.512500 0.688440
vt 0.525000 0.688440
vt 0.537500 0.688440
vt 0.550000 0.688440
vt 0.562500 0.688440
vt 0.575000 0.688440
vt 0.587500 0.688440
vt 0.600000 0.688440
vt 0.612500 0.688440
vt 0.625000 0.688440
vt 0.648603 0.795466
vt 0.626409 0.751908
vt 0.591842 0.717341
vt 0.548284 0.695147
vt 0.500000 0.687500
vt 0.451716 0.695147
vt 0.408159 0.717341
vt 0.373591 0.751909
vt 0.351397 0.795466
vt 0.343750 0.843750
vt 0.351397 0.892034
vt 0.373591 0.935591
vt 0.408159 0.970159
vt 0.451716 0.992353
vt 0.500000 1.000000
vt 0.548284 0.992353
vt 0.591841 0.970159
vt 0.626409 0.935591
vt 0.648603 0.892034
vt 0.656250 0.843750
vt 0.500000 0.150000
vt 0.500000 0.837500
vn 0.951057 0.000000 -0.309016
vn 0.809017 0.000000 -0.587785
vn 0.809017 0.000000 -0.587785
vn 0.951057 0.000000 -0.309016
vn 0.587785 0.000000 -0.809017
vn 0.587785 0.000000 -0.809017
vn 0.309017 0.000000 -0.951057
vn 0.309017 0.000000 -0.951057
vn -0.000000 0.000000 -1.000000
vn -0.000000 0.000000 -1.000000
vn -0.309017 0.000000 -0.951057
vn -0.309017 0.000000 -0.951057
vn -0.587785 0.000000 -0.809017
vn -0.587785 0.000000 -0.809017
vn -0.809017 0.000000 -0.587785
vn -0.809017 0.000000 -0.587785
vn -0.951057 0.000000 -0.309017
vn -0.951057 0.000000 -0.309017
vn -1.000000 0.000000 0.000000
vn -1.000000 0.000000 0.000000
vn -0.951056 0.000000 0.309017
vn -0.951056 0.000000 0.309017
vn -0.809017 0.000000 0.587785
vn -0.809017 0.000000 0.587785
vn -0.587785 0.000000 0.809017
vn -0.587785 0.000000 0.809017
vn -0.309017 0.000000 0.951057
vn -0.309017 0.000000 0.951057
vn 0.000000 0.000000 1.000000
vn 0.000000 0.000000 1.000000
vn 0.309017 0.000000 0.951057
vn 0.309017 0.000000 0.951057
vn 0.587785 0.000000 0.809017
vn 0.587785 0.000000 0.809017
vn 0.809017 0.000000 0.587785
vn 0.809017 0.000000 0.587785
vn 0.951057 0.000000 0.309017
vn 0.951057 0.000000 0.309017
vn 1.000000 0.000000 0.000001
vn 1.000000 0.000000 0.000001
vn 0.000000 -1.000000 0.000000
vn 0.000000 -1.000000 0.000000
vn 0.000000 -1.000000 0.000000
vn 0.000000 -1.000000 0.000000
vn 0.000000 -1.000000 0.000000
vn 0.000000 -1.000000 0.000000
vn 0.000000 -1.000000 0.000000
vn 0.000000 -1.000000 0.000000
vn 0.000000 -1.000000 0.000000
vn 0.000000 -1.000000 0.000000
vn 0.000000 -1.000000 0.000000
vn 0.000000 -1.000000 0.000000
vn 0.000000 -1.000000 0.000000
vn 0.000000 -1.000000 0.000000
vn 0.000000 -1.000000 0.000000
vn 0.000000 -1.000000 0.000000
vn 0.000000 -1.000000 0.000000
vn 0.000000 -1.000000 0.000000
vn 0.000000 -1.000000 0.000000
vn 0.000000 -1.000000 0.000000
vn 0.000000 -1.000000 0.000000
vn 0.000000 1.000000 0.000000
vn 0.000000 1.000000 0.000000
vn 0.000000 1.000000 0.000000
vn 0.000000 1.000000 0.000000
vn 0.000000 1.000000 0.000000
vn 0.000000 1.000000 0.000000
vn 0.000000 1.000000 0.000000
vn 0.000000 1.000000 0.000000
vn 0.000000 1.000000 0.000000
vn 0.000000 1.000000 0.000000
vn 0.000000 1.000000 0.000000
vn 0.000000 1.000000 0.000000
vn 0.000000 1.000000 0.000000
vn 0.000000 1.000000 0.000000
vn 0.000000 1.000000 0.000000
vn 0.000000 1.000000 0.000000
vn 0.000000 1.000000 0.000000
vn 0.000000 1.000000 0.000000
vn 0.000000 1.000000 0.000000
vn 0.000000 1.000000 0.000000
vn 0.000000 1.000000 0.000000
s 1
g pCylinder1
usemtl initialShadingGroup
f 22/63/42 23/64/43 43/85/44 42/84/45
f 23/64/43 24/65/46 44/86/47 43/85/44
f 24/65/46 25/66/48 45/87/49 44/86/47
f 25/66/48 26/67/50 46/88/51 45/87/49
f 26/67/50 27/68/52 47/89/53 46/88/51
f 27/68/52 28/69/54 48/90/55 47/89/53
f 28/69/54 29/70/56 49/91/57 48/90/55
f 29/70/56 30/71/58 50/92/59 49/91/57
f 30/71/58 31/72/60 51/93/61 50/92/59
f 31/72/60 32/73/62 52/94/63 51/93/61
f 32/73/62 33/74/64 53/95/65 52/94/63
f 33/74/64 34/75/66 54/96/67 53/95/65
f 34/75/66 35/76/68 55/97/69 54/96/67
f 35/76/68 36/77/70 56/98/71 55/97/69
f 36/77/70 37/78/72 57/99/73 56/98/71
f 37/78/72 38/79/74 58/100/75 57/99/73
f 38/79/74 39/80/76 59/101/77 58/100/75
f 39/80/76 40/81/78 60/102/79 59/101/77
f 40/81/78 41/82/80 61/103/81 60/102/79
f 41/82/80 22/83/42 42/104/45 61/103/81
s 2
f 23/44/82 22/43/83 62/125/84
f 24/45/85 23/44/82 62/125/84
f 25/46/86 24/45/85 62/125/84
f 26/47/87 25/46/86 62/125/84
f 27/48/88 26/47/87 62/125/84
f 28/49/89 27/48/88 62/125/84
f 29/50/90 28/49/89 62/125/84
f 30/51/91 29/50/90 62/125/84
f 31/52/92 30/51/91 62/125/84
f 32/53/93 31/52/92 62/125/84
f 33/54/94 32/53/93 62/125/84
f 34/55/95 33/54/94 62/125/84
f 35/56/96 34/55/95 62/125/84
f 36/57/97 35/56/96 62/125/84
f 37/58/98 36/57/97 62/125/84
f 38/59/99 37/58/98 62/125/84
f 39/60/100 38/59/99 62/125/84
f 40/61/101 39/60/100 62/125/84
f 41/62/102 40/61/101 62/125/84
f 22/43/83 41/62/102 62/125/84
s 3
f 42/123/103 43/122/104 63/126/105
f 43/122/104 44/121/106 63/126/105
f 44/121/106 45/120/107 63/126/105
f 45/120/107 46/119/108 63/126/105
f 46/119/108 47/118/109 63/126/105
f 47/118/109 48/117/110 63/126/105
f 48/117/110 49/116/111 63/126/105
f 49/116/111 50/115/112 63/126/105
f 50/115/112 51/114/113 63/126/105
f 51/114/113 52/113/114 63/126/105
f 52/113/114 53/112/115 63/126/105
f 53/112/115 54/111/116 63/126/105
f 54/111/116 55/110/117 63/126/105
f 55/110/117 56/109/118 63/126/105
f 56/109/118 57/108/119 63/126/105
f 57/108/119 58/107/120 63/126/105
f 58/107/120 59/106/121 63/126/105
f 59/106/121 60/105/122 63/126/105
f 60/105/122 61/124/123 63/126/105
f 61/124/123 42/123/103 63/126/105
g default
v 0.112247 1.610721 -0.000000
v 0.106753 1.610721 -0.034686
v 0.090810 1.610721 -0.065977
v 0.065977 1.610721 -0.090810
v 0.034686 1.610721 -0.106753
v -0.000000 1.610721 -0.112247
v -0.034686 1.610721 -0.106753
v -0.065977 1.610721 -0.090810
v -0.090810 1.610721 -0.065977
v -0.106753 1.610721 -0.034686
v -0.112247 1.610721 -0.000000
v -0.106753 1.610721 0.034686
v -0.090810 1.610721 0.065977
v -0.065977 1.610721 0.090810
v -0.034686 1.610721 0.106753
v 0.000000 1.610721 0.112247
v 0.034686 1.610721 0.106753
v 0.065977 1.610721 0.090810
v 0.090810 1.610721 0.065977
v 0.106753 1.610721 0.034686
v 0.112247 40.744895 0.000000
v 0.106753 40.744895 -0.034686
v 0.090810 40.744895 -0.065977
v 0.065977 40.744895 -0.090810
v 0.034686 40.744895 -0.106753
v -0.000000 40.744895 -0.112247
v -0.034686 40.744895 -0.106753
v -0.065977 40.744895 -0.090810
v -0.090810 40.744895 -0.065977
v -0.106753 40.744895 -0.034686
v -0.112247 40.744895 0.000000
v -0.106753 40.744895 0.034686
v -0.090810 40.744895 0.065977
v -0.065977 40.744895 0.090810
v -0.034686 40.744895 0.106753
v 0.000000 40.744895 0.112247
v 0.034686 40.744895 0.106753
v 0.065977 40.744895 0.090810
v 0.090810 40.744895 0.065977
v 0.106753 40.744895 0.034686
v 0.224494 40.744895 0.000000
v 0.213507 40.744895 -0.069373
v 0.181620 40.744895 -0.131954
v 0.131954 40.744895 -0.181620
v 0.069373 40.744895 -0.213507
v -0.000000 40.744895 -0.224494
v -0.069373 40.744895 -0.213507
v -0.131954 40.744895 -0.181620
v -0.181620 40.744895 -0.131954
v -0.213507 40.744895 -0.069373
v -0.224494 40.744895 0.000000
v -0.213507 40.744895 0.069373
v -0.181620 40.744895 0.131954
v -0.131954 40.744895 0.181620
v -0.069373 40.744895 0.213507
v 0.000000 40.744895 0.224494
v 0.069373 40.744895 0.213507
v 0.131954 40.744895 0.181620
v 0.181620 40.744895 0.131954
v 0.213507 40.744895 0.069373
v 0.224494 1.610721 -0.000000
v 0.213507 1.610721 -0.069373
v 0.181620 1.610721 -0.131954
v 0.131954 1.610721 -0.181620
v 0.069373 1.610721 -0.213507
v -0.000000 1.610721 -0.224494
v -0.069373 1.610721 -0.213507
v -0.131954 1.610721 -0.181620
v -0.181620 1.610721 -0.131954
v -0.213507 1.610721 -0.069373
v -0.224494 1.610721 -0.000000
v -0.213507 1.610721 0.069373
v -0.181620 1.610721 0.131954
v -0.131954 1.610721 0.181620
v -0.069373 1.610721 0.213507
v 0.000000 1.610721 0.224494
v 0.069373 1.610721 0.213507
v 0.131954 1.610721 0.181620
v 0.181620 1.610721 0.131954
v 0.213507 1.610721 0.069373
vt 0.000000 1.000000
vt 0.050000 1.000000
vt 0.100000 1.000000
vt 0.150000 1.000000
vt 0.200000 1.000000
vt 0.250000 1.000000
vt 0.300000 1.000000
vt 0.350000 1.000000
vt 0.400000 1.000000
vt 0.450000 1.000000
vt 0.500000 1.000000
vt 0.550000 1.000000
vt 0.600000 1.000000
vt 0.650000 1.000000
vt 0.700000 1.000000
vt 0.750000 1.000000
vt 0.800000 1.000000
vt 0.850000 1.000000
vt 0.900000 1.000000
vt 0.950000 1.000000
vt 1.000000 1.000000
vt 0.000000 0.750000
vt 0.050000 0.750000
vt 0.100000 0.750000
vt 0.150000 0.750000
vt 0.200000 0.750000
vt 0.250000 0.750000
vt 0.300000 0.750000
vt 0.350000 0.750000
vt 0.400000 0.750000
vt 0.450000 0.750000
vt 0.500000 0.750000
vt 0.550000 0.750000
vt 0.600000 0.750000
vt 0.650000 0.750000
vt 0.700000 0.750000
vt 0.750000 0.750000
vt 0.800000 0.750000
vt 0.850000 0.750000
vt 0.900000 0.750000
vt 0.950000 0.750000
vt 1.000000 0.750000
vt 0.000000 0.500000
vt 0.050000 0.500000
vt 0.100000 0.500000
vt 0.150000 0.500000
vt 0.200000 0.500000
vt 0.250000 0.500000
vt 0.300000 0.500000
vt 0.350000 0.500000
vt 0.400000 0.500000
vt 0.450000 0.500000
vt 0.500000 0.500000
vt 0.550000 0.500000
vt 0.600000 0.500000
vt 0.650000 0.500000
vt 0.700000 0.500000
vt 0.750000 0.500000
vt 0.800000 0.500000
vt 0.850000 0.500000
vt 0.900000 0.500000
vt 0.950000 0.500000
vt 1.000000 0.500000
vt 0.000000 0.250000
vt 0.050000 0.250000
vt 0.100000 0.250000
vt 0.150000 0.250000
vt 0.200000 0.250000
vt 0.250000 0.250000
vt 0.300000 0.250000
vt 0.350000 0.250000
vt 0.400000 0.250000
vt 0.450000 0.250000
vt 0.500000 0.250000
vt 0.550000 0.250000
vt 0.600000 0.250000
vt 0.650000 0.250000
vt 0.700000 0.250000
vt 0.750000 0.250000
vt 0.800000 0.250000
vt 0.850000 0.250000
vt 0.900000 0.250000
vt 0.950000 0.250000
vt 1.000000 0.250000
vt 0.000000 0.000000
vt 0.050000 0.000000
vt 0.100000 0.000000
vt 0.150000 0.000000
vt 0.200000 0.000000
vt 0.250000 0.000000
vt 0.300000 0.000000
vt 0.350000 0.000000
vt 0.400000 0.000000
vt 0.450000 0.000000
vt 0.500000 0.000000
vt 0.550000 0.000000
vt 0.600000 0.000000
vt 0.650000 0.000000
vt 0.700000 0.000000
vt 0.750000 0.000000
vt 0.800000 0.000000
vt 0.850000 0.000000
vt 0.900000 0.000000
vt 0.950000 0.000000
vt 1.000000 0.000000
vn -0.951057 0.000000 0.309017
vn -1.000000 0.000000 0.000001
vn -1.000000 0.000000 0.000001
vn -0.951057 0.000000 0.309017
vn -0.809017 0.000000 0.587785
vn -0.809017 0.000000 0.587785
vn -0.587785 0.000000 0.809017
vn -0.587785 0.000000 0.809017
vn -0.309017 0.000000 0.951057
vn -0.309017 0.000000 0.951057
vn -0.000000 0.000000 1.000000
vn -0.000000 0.000000 1.000000
vn 0.309017 0.000000 0.951057
vn 0.309017 0.000000 0.951057
vn 0.587785 0.000000 0.809017
vn 0.587785 0.000000 0.809017
vn 0.809017 0.000000 0.587785
vn 0.809017 0.000000 0.587785
vn 0.951057 -0.000000 0.309017
vn 0.951057 -0.000000 0.309017
vn 1.000000 -0.000000 0.000000
vn 1.000000 -0.000000 0.000000
vn 0.951057 0.000000 -0.309017
vn 0.951057 0.000000 -0.309017
vn 0.809017 0.000000 -0.587785
vn 0.809017 0.000000 -0.587785
vn 0.587785 0.000000 -0.809017
vn 0.587785 0.000000 -0.809017
vn 0.309017 0.000000 -0.951056
vn 0.309017 0.000000 -0.951056
vn 0.000000 0.000000 -1.000000
vn 0.000000 0.000000 -1.000000
vn -0.309017 0.000000 -0.951057
vn -0.309017 0.000000 -0.951057
vn -0.587785 0.000000 -0.809017
vn -0.587785 0.000000 -0.809017
vn -0.809017 0.000000 -0.587785
vn -0.809017 0.000000 -0.587785
vn -0.951057 0.000000 -0.309016
vn -0.951057 0.000000 -0.309016
vn 0.000000 1.000000 0.000000
vn 0.000000 1.000000 -0.000011
vn 0.000000 1.000000 -0.000011
vn 0.000000 1.000000 0.000000
vn 0.000000 1.000000 0.000011
vn 0.000000 1.000000 0.000011
vn 0.000000 1.000000 -0.000006
vn 0.000000 1.000000 -0.000006
vn 0.000000 1.000000 -0.000011
vn 0.000000 1.000000 -0.000011
vn 0.000000 1.000000 -0.000006
vn 0.000000 1.000000 -0.000006
vn 0.000000 1.000000 0.000000
vn 0.000000 1.000000 0.000000
vn 0.000000 1.000000 0.000000
vn 0.000000 1.000000 0.000000
vn 0.000000 1.000000 0.000000
vn 0.000000 1.000000 0.000000
vn 0.000000 1.000000 0.000000
vn 0.000000 1.000000 0.000000
vn 0.000000 1.000000 0.000011
vn 0.000000 1.000000 0.000011
vn 0.000000 1.000000 0.000000
vn 0.000000 1.000000 -0.000000
vn 0.000000 1.000000 -0.000011
vn 0.000000 1.000000 -0.000011
vn 0.000000 1.000000 -0.000006
vn 0.000000 1.000000 -0.000006
vn 0.000000 1.000000 -0.000006
vn 0.000000 1.000000 -0.000006
vn 0.000000 1.000000 0.000000
vn 0.000000 1.000000 0.000000
vn 0.000000 1.000000 0.000000
vn 0.000000 1.000000 0.000000
vn 0.000000 1.000000 0.000000
vn 0.000000 1.000000 0.000000
vn 0.000000 1.000000 0.000000
vn 0.000000 1.000000 0.000000
vn 0.000000 1.000000 0.000000
vn 0.000000 1.000000 0.000000
vn 0.951057 0.000000 -0.309017
vn 1.000000 -0.000000 -0.000001
vn 1.000000 -0.000000 -0.000001
vn 0.951057 0.000000 -0.309017
vn 0.809017 0.000000 -0.587785
vn 0.809017 0.000000 -0.587785
vn 0.587785 0.000000 -0.809017
vn 0.587785 0.000000 -0.809017
vn 0.309017 0.000000 -0.951057
vn 0.309017 0.000000 -0.951057
vn 0.000000 0.000000 -1.000000
vn 0.000000 0.000000 -1.000000
vn -0.309017 0.000000 -0.951057
vn -0.309017 0.000000 -0.951057
vn -0.587785 0.000000 -0.809017
vn -0.587785 0.000000 -0.809017
vn -0.809017 0.000000 -0.587785
vn -0.809017 0.000000 -0.587785
vn -0.951057 0.000000 -0.309017
vn -0.951057 0.000000 -0.309017
vn -1.000000 0.000000 0.000000
vn -1.000000 0.000000 0.000000
vn -0.951057 0.000000 0.309017
vn -0.951057 0.000000 0.309017
vn -0.809017 0.000000 0.587785
vn -0.809017 0.000000 0.587785
vn -0.587785 0.000000 0.809017
vn -0.587785 0.000000 0.809017
vn -0.309017 0.000000 0.951056
vn -0.309017 0.000000 0.951056
vn -0.000000 0.000000 1.000000
vn -0.000000 0.000000 1.000000
vn 0.309017 0.000000 0.951057
vn 0.309017 0.000000 0.951057
vn 0.587785 0.000000 0.809017
vn 0.587785 0.000000 0.809017
vn 0.809017 0.000000 0.587785
vn 0.809017 0.000000 0.587785
vn 0.951057 -0.000000 0.309016
vn 0.951057 -0.000000 0.309016
vn 0.000000 -1.000000 0.000000
vn 0.000000 -1.000000 0.000011
vn 0.000000 -1.000000 0.000011
vn 0.000000 -1.000000 0.000000
vn 0.000000 -1.000000 0.000000
vn 0.000000 -1.000000 0.000000
vn 0.000000 -1.000000 0.000000
vn 0.000000 -1.000000 0.000000
vn 0.000000 -1.000000 0.000000
vn 0.000000 -1.000000 0.000000
vn 0.000000 -1.000000 0.000006
vn 0.000000 -1.000000 0.000006
vn 0.000000 -1.000000 0.000006
vn 0.000000 -1.000000 0.000006
vn 0.000000 -1.000000 0.000000
vn 0.000000 -1.000000 0.000000
vn 0.000000 -1.000000 0.000000
vn 0.000000 -1.000000 0.000000
vn 0.000000 -1.000000 0.000000
vn 0.000000 -1.000000 0.000000
vn 0.000000 -1.000000 0.000000
vn 0.000000 -1.000000 0.000000
vn 0.000000 -1.000000 0.000000
vn 0.000000 -1.000000 0.000000
vn 0.000000 -1.000000 0.000000
vn 0.000000 -1.000000 0.000000
vn 0.000000 -1.000000 0.000000
vn 0.000000 -1.000000 0.000000
vn 0.000000 -1.000000 0.000000
vn 0.000000 -1.000000 0.000000
vn 0.000000 -1.000000 0.000000
vn 0.000000 -1.000000 0.000000
vn 0.000000 -1.000000 0.000000
vn 0.000000 -1.000000 0.000000
vn 0.000000 -1.000000 0.000000
vn 0.000000 -1.000000 0.000000
vn 0.000000 -1.000000 0.000000
vn 0.000000 -1.000000 0.000000
vn 0.000000 -1.000000 0.000011
vn 0.000000 -1.000000 0.000011
s 1
g pPipe1
usemtl initialShadingGroup
f 65/128/124 64/127/125 84/148/126 85/149/127
f 66/129/128 65/128/124 85/149/127 86/150/129
f 67/130/130 66/129/128 86/150/129 87/151/131
f 68/131/132 67/130/130 87/151/131 88/152/133
f 69/132/134 68/131/132 88/152/133 89/153/135
f 70/133/136 69/132/134 89/153/135 90/154/137
f 71/134/138 70/133/136 90/154/137 91/155/139
f 72/135/140 71/134/138 91/155/139 92/156/141
f 73/136/142 72/135/140 92/156/141 93/157/143
f 74/137/144 73/136/142 93/157/143 94/158/145
f 75/138/146 74/137/144 94/158/145 95/159/147
f 76/139/148 75/138/146 95/159/147 96/160/149
f 77/140/150 76/139/148 96/160/149 97/161/151
f 78/141/152 77/140/150 97/161/151 98/162/153
f 79/142/154 78/141/152 98/162/153 99/163/155
f 80/143/156 79/142/154 99/163/155 100/164/157
f 81/144/158 80/143/156 100/164/157 101/165/159
f 82/145/160 81/144/158 101/165/159 102/166/161
f 83/146/162 82/145/160 102/166/161 103/167/163
f 64/147/125 83/146/162 103/167/163 84/168/126
s 2
f 85/149/164 84/148/165 104/169/166 105/170/167
f 86/150/168 85/149/164 105/170/167 106/171/169
f 87/151/170 86/150/168 106/171/169 107/172/171
f 88/152/172 87/151/170 107/172/171 108/173/173
f 89/153/174 88/152/172 108/173/173 109/174/175
f 90/154/176 89/153/174 109/174/175 110/175/177
f 91/155/178 90/154/176 110/175/177 111/176/179
f 92/156/180 91/155/178 111/176/179 112/177/181
f 93/157/182 92/156/180 112/177/181 113/178/183
f 94/158/184 93/157/182 113/178/183 114/179/185
f 95/159/186 94/158/184 114/179/185 115/180/187
f 96/160/188 95/159/186 115/180/187 116/181/189
f 97/161/190 96/160/188 116/181/189 117/182/191
f 98/162/192 97/161/190 117/182/191 118/183/193
f 99/163/194 98/162/192 118/183/193 119/184/195
f 100/164/196 99/163/194 119/184/195 120/185/197
f 101/165/198 100/164/196 120/185/197 121/186/199
f 102/166/200 101/165/198 121/186/199 122/187/201
f 103/167/202 102/166/200 122/187/201 123/188/203
f 84/168/165 103/167/202 123/188/203 104/189/166
s 3
f 105/170/204 104/169/205 124/190/206 125/191/207
f 106/171/208 105/170/204 125/191/207 126/192/209
f 107/172/210 106/171/208 126/192/209 127/193/211
f 108/173/212 107/172/210 127/193/211 128/194/213
f 109/174/214 108/173/212 128/194/213 129/195/215
f 110/175/216 109/174/214 129/195/215 130/196/217
f 111/176/218 110/175/216 130/196/217 131/197/219
f 112/177/220 111/176/218 131/197/219 132/198/221
f 113/178/222 112/177/220 132/198/221 133/199/223
f 114/179/224 113/178/222 133/199/223 134/200/225
f 115/180/226 114/179/224 134/200/225 135/201/227
f 116/181/228 115/180/226 135/201/227 136/202/229
f 117/182/230 116/181/228 136/202/229 137/203/231
f 118/183/232 117/182/230 137/203/231 138/204/233
f 119/184/234 118/183/232 138/204/233 139/205/235
f 120/185/236 119/184/234 139/205/235 140/206/237
f 121/186/238 120/185/236 140/206/237 141/207/239
f 122/187/240 121/186/238 141/207/239 142/208/241
f 123/188/242 122/187/240 142/208/241 143/209/243
f 104/189/205 123/188/242 143/209/243 124/210/206
s 4
f 125/191/244 124/190/245 64/211/246 65/212/247
f 126/192/248 125/191/244 65/212/247 66/213/249
f 127/193/250 126/192/248 66/213/249 67/214/251
f 128/194/252 127/193/250 67/214/251 68/215/253
f 129/195/254 128/194/252 68/215/253 69/216/255
f 130/196/256 129/195/254 69/216/255 70/217/257
f 131/197/258 130/196/256 70/217/257 71/218/259
f 132/198/260 131/197/258 71/218/259 72/219/261
f 133/199/262 132/198/260 72/219/261 73/220/263
f 134/200/264 133/199/262 73/220/263 74/221/265
f 135/201/266 134/200/264 74/221/265 75/222/267
f 136/202/268 135/201/266 75/222/267 76/223/269
f 137/203/270 136/202/268 76/223/269 77/224/271
f 138/204/272 137/203/270 77/224/271 78/225/273
f 139/205/274 138/204/272 78/225/273 79/226/275
f 140/206/276 139/205/274 79/226/275 80/227/277
f 141/207/278 140/206/276 80/227/277 81/228/279
f 142/208/280 141/207/278 81/228/279 82/229/281
f 143/209/282 142/208/280 82/229/281 83/230/283
f 124/210/245 143/209/282 83/230/283 64/231/246
